<?xml version="1.0" encoding="utf-8"?>
<!-- Generator: Adobe Illustrator 22.1.0, SVG Export Plug-In . SVG Version: 6.00 Build 0)  -->
<svg version="1.1" xmlns="http://www.w3.org/2000/svg" xmlns:xlink="http://www.w3.org/1999/xlink" x="0px" y="0px" width="1000px"
	 height="1000px" viewBox="0 0 1000 1000" style="enable-background:new 0 0 1000 1000;" xml:space="preserve">
<style type="text/css">
	.st0{fill:#343A40;}
	.st1{fill:#C99873;}
	.st2{fill:none;stroke:#D99878;stroke-linecap:round;stroke-linejoin:round;stroke-miterlimit:10;}
	.st3{fill:#38513A;}
	.st4{fill:#D19F75;}
	.st5{fill:#FFB58E;}
	.st6{fill:#E19E7D;}
	.st7{fill:#B98D67;}
	.st8{opacity:0.7;}
	.st9{opacity:0.5;fill:url(#SVGID_1_);stroke:url(#SVGID_2_);stroke-miterlimit:10;enable-background:new    ;}
	.st10{opacity:0.5;fill:url(#SVGID_3_);stroke:url(#SVGID_4_);stroke-miterlimit:10;enable-background:new    ;}
	.st11{fill:none;stroke:#A8815E;stroke-width:5;stroke-linecap:round;stroke-linejoin:round;stroke-miterlimit:10;}
	.st12{fill:#87584D;}
	.st13{fill:#C3897C;}
	.st14{fill:#B27F71;}
	.st15{fill:none;stroke:#7C6951;stroke-width:5;stroke-linecap:round;stroke-linejoin:round;stroke-miterlimit:10;}
	.st16{fill:#6D5D47;}
	.st17{fill:#0F1814;}
	.st18{fill:#0A1214;}
	.st19{fill:#FFFFFF;}
</style>
<g id="Layer_2">
	<rect class="st0" width="1000" height="1000"/>
</g>
<g id="Layer_1">
	<g id="Layer_1_1_">
		<g>
			<path class="st1" d="M298.7,470.3c-6.4-1.4-12.8,2.4-14.8,8.5c-3.9,12.3-4.8,25.4-3.9,38.2c0.7,9.6,2.6,19.1,5.3,28.3
				c3.6,12.5,7.9,23,4.9,36.3c-2.4,10.8-15.5,25-2.7,34.6c4.8,3.6,13.2,3.7,17.5-1c4.9-5.4,3.1-14.6,5.3-21.1
				c5.3-15.6,5.9-33.1,6-49.5c0.2-23.9-1.5-48.1-4.9-71.7L298.7,470.3z"/>
			<path class="st1" d="M701.3,470.3c6.4-1.4,12.8,2.4,14.8,8.5c3.9,12.3,4.8,25.4,3.9,38.2c-0.7,9.6-2.6,19.1-5.3,28.3
				c-3.6,12.5-7.9,23-4.9,36.3c2.4,10.8,15.5,25,2.7,34.6c-4.8,3.6-13.2,3.7-17.5-1c-4.9-5.4-3.1-14.6-5.3-21.1
				c-5.3-15.6-5.9-33.1-6-49.5c-0.2-23.9,1.5-48.1,4.9-71.7L701.3,470.3z"/>
		</g>
		<path class="st2" d="M893.7,852"/>
		<g>
			<path class="st3" d="M749,830.7c-83.8-13.7-169-41-179.2-38.7c0,0,11.7,97.2-69.8,97.2c-86.7,0-69-97.2-69-97.2
				c-9.2,0-96.2,25-180,38.7c-72.9,11.9-99.5,163.4-99.5,163.4h697C848.5,994.1,821.9,842.6,749,830.7z"/>
		</g>
		<g>
			<path class="st4" d="M424.5,821.8c3.6,30.3,17.9,83.8,73.5,83.8c68.4,0,77.3-79.3,78.4-99.5c-30.6,13.9-63.9,21.7-98.9,21.7
				C459.4,827.9,441.7,825.8,424.5,821.8z"/>
			<path class="st5" d="M423.3,804.6v-3.1C423.3,801.5,423.3,802.7,423.3,804.6z"/>
			<path class="st6" d="M576.7,806.1v-4.5c0,0.4,0,2-0.2,4.6C576.6,806.1,576.6,806.1,576.7,806.1z"/>
			<path class="st7" d="M500,625.5c-42.2,0-76.7,34.3-76.7,76.2v99.9v3.1c0.1,3.5,0.3,9.6,1.2,17.3c17.1,4,34.8,6.1,53,6.1
				c35,0,68.4-7.7,98.9-21.7c0.1-2.6,0.2-4.2,0.2-4.6V701.6C576.7,659.7,542.2,625.5,500,625.5z"/>
		</g>
		<path class="st4" d="M689.1,343.9c-3.8-13.1-9.1-25.8-15.5-37.8c-6.5-12.3-14.3-53.8-23-64.8c-8.8-11-18.6-21.3-29.3-30.5
			c-10.7-9.2-22.2-17.5-34.5-24.5c-12.2-7-25.1-12.8-38.5-17.1c-17.1-5.6-35.4,20.4-53.5,21.3c-11.7,0.5-23.2,3.1-34.5,6
			c-13.6,3.7-26.7,8.8-39.2,15.3s-24.4,14.2-35.4,22.9c-11,8.7-21.3,18.6-30.5,29.2c-9.2,10.5-17.4,22-24.5,34.1
			c-7,11.9-12.8,24.4-17.3,37.4c-1,2.8-1.9,5.7-2.7,8.5c-21.8,74.4-10.3,156.8-12.5,233.6c-1.2,40.9,3.3,74.9,25.2,110.2
			c19.6,31.5,46.8,58.2,78.3,77.9c32.5,20.4,61,33.8,98.1,32.8c37.2,1,65.6-12.5,98.1-32.8c31.5-19.7,58.8-46.4,78.3-77.9
			c21.9-35.2,26.4-69.1,25.2-110.2C699.4,500.7,710.9,418.2,689.1,343.9z"/>
		<g class="st8">
			
				<radialGradient id="SVGID_1_" cx="353" cy="474.7" r="82.5" gradientTransform="matrix(1 0 0 -0.9932 0 994.0657)" gradientUnits="userSpaceOnUse">
				<stop  offset="1.722756e-03" style="stop-color:#FBAC75"/>
				<stop  offset="0.9991" style="stop-color:#FBAC75;stop-opacity:0"/>
			</radialGradient>
			
				<radialGradient id="SVGID_2_" cx="353" cy="474.7" r="83" gradientTransform="matrix(1 0 0 -0.9932 0 994.0657)" gradientUnits="userSpaceOnUse">
				<stop  offset="0" style="stop-color:#EBA366"/>
				<stop  offset="0.76" style="stop-color:#F6A971;stop-opacity:0.2393"/>
				<stop  offset="0.9991" style="stop-color:#FBAC75;stop-opacity:0"/>
			</radialGradient>
			<ellipse class="st9" cx="353" cy="522.6" rx="82.5" ry="81.9"/>
			
				<radialGradient id="SVGID_3_" cx="647" cy="474.7" r="82.5" gradientTransform="matrix(1 0 0 -0.9932 0 994.0657)" gradientUnits="userSpaceOnUse">
				<stop  offset="1.722756e-03" style="stop-color:#FBAC75"/>
				<stop  offset="0.9991" style="stop-color:#FBAC75;stop-opacity:0"/>
			</radialGradient>
			
				<radialGradient id="SVGID_4_" cx="647" cy="474.7" r="83" gradientTransform="matrix(1 0 0 -0.9932 0 994.0657)" gradientUnits="userSpaceOnUse">
				<stop  offset="0" style="stop-color:#EBA366"/>
				<stop  offset="0.76" style="stop-color:#F6A971;stop-opacity:0.2393"/>
				<stop  offset="0.9991" style="stop-color:#FBAC75;stop-opacity:0"/>
			</radialGradient>
			<ellipse class="st10" cx="647" cy="522.6" rx="82.5" ry="81.9"/>
		</g>
		<g>
			<path class="st11" d="M545,546.6c0,0-1-7.9-9-7.9c-5.5,0-10.7,5.8-14.7,8.7c-2.8,2.1-5.7,4.2-8.9,5.5c-3.9,1.7-8.5,1.8-12.8,1.8
				c-4.1,0-8.4-0.2-12.2-1.9c-3.2-1.4-6-3.4-8.7-5.5c-4-3.1-9-8.5-14.4-8.7c-0.1,0-0.2,0-0.3,0c-8,0-9,7.9-9,7.9"/>
			<path class="st12" d="M581.3,616.4c-4.7,0-11.2-0.1-15.1-0.7c-10.3-1.6-20.2-4.7-30.5-6.3c-20.8-3.2-42.1-3.4-63-1.1
				c-13.2,1.5-25.8,5.3-38.9,7.3c-3.9,0.6-10.4,0.7-15.1,0.7c-2.2,0-3,3-1.1,4c0,0,0,0,0.1,0c11.3,5.7,23.8,2,34.8-2.1
				c5.9-2.2,11.9-3.9,18.1-5.1c9.8-1.9,16.5,6.4,58.8,0c6.2-0.9,12.2,2.9,18.1,5.1c11.1,4.1,23.6,7.7,34.8,2.1c0,0,0,0,0.1,0
				C584.3,619.4,583.5,616.4,581.3,616.4z"/>
			<path class="st13" d="M568.5,622.4c-22.6-12.1-49.9-11.3-63.9-8.7c-3.8,0.7-7.8,0.6-11.6-0.2c-13.7-2.9-39.2-5.1-61.6,7
				c-2.8,1.5-3.4,5.4-1.2,7.6c5.2,5.5,21.1,16.7,27.7,23.3c5.3,5.3,15.5,5.8,25.2,5.1c10.5-0.8,21.1-0.8,31.6,0
				c9.7,0.7,19.9,0.2,25.2-5.1c6.7-6.7,24.6-15.9,29.7-21.4C572,627.8,571.4,623.9,568.5,622.4z"/>
			<path class="st14" d="M568.5,609.7c-7.5-5-26.5-24.8-48-24.8c-9,0-15.4,5.8-21.5,6c-6.1-0.1-12.5-6-21.5-6
				c-21.5,0-38.5,18.9-46,23.8c-3.4,2.3-3.8,4.6-3.2,7.2c1.5,5.5,9.3,4.7,14.9,3.2c36.6-9.8,69.1-10.6,111.6,0.1
				c5.6,1.4,15.4,3.2,16.9-2.3C572.3,614.3,571.9,612,568.5,609.7z"/>
		</g>
		<path class="st15" d="M410.5,731.9c0,0,25.5,42.7,89.5,42.7s89.5-42.7,89.5-42.7"/>
		<path class="st16" d="M501,659.7c-9.1,0-18.2,0.6-27.5,1.9c-2,0.3-2.7,2.7-1.2,4c15.4,13.8,40,13.8,55.4,0c1.5-1.3,0.7-3.8-1.2-4
			C517.9,660.4,509.4,659.8,501,659.7z"/>
		<g>
			<path class="st17" d="M553.9,167.7c0.1-0.1,0.2-0.2,0.3-0.3l0.2-0.2l0.4-0.3l0.7-0.6l1.4-1c1-0.7,2-1.3,2.9-1.9
				c2-1.2,4-2.4,6.1-3.5c4.1-2.2,8.4-4.1,12.8-5.8c8.7-3.4,17.9-5.9,27.3-7.3c9.4-1.4,19.3-1.3,29.1,0.9c4.9,1.1,9.7,2.7,14.3,4.9
				s9,5,12.9,8.2c3.9,3.4,7.2,7.3,9.9,11.6c2.6,4.3,4.6,8.9,6,13.6c1.3,4.7,2.1,9.4,2.6,14.1c0.4,4.7,0.4,9.4,0.2,14
				c-0.1,2.3-0.3,4.7-0.5,7c-0.3,2.3-0.5,4.6-0.9,6.9c-0.4,2.3-0.7,4.6-1.2,6.8c-0.4,2.3-0.9,4.5-1.4,6.7s-1,4.5-1.7,6.7
				c-0.6,2.2-1.1,4.4-1.8,6.6c-0.7,2.2-1.3,4.4-2,6.5l-2.2,6.5c-0.1,0.4-0.6,0.6-1,0.5s-0.6-0.5-0.5-0.9l0,0l1.3-6.6
				c0.4-2.2,0.8-4.4,1.2-6.7c0.4-2.2,0.7-4.4,1.1-6.7c0.4-2.2,0.6-4.5,0.9-6.7c1-8.8,1.6-17.7,1.2-26.4c-0.2-4.4-0.6-8.6-1.4-12.9
				c-0.8-4.2-1.9-8.2-3.4-12.1c-2.9-7.7-7.6-14.5-13.9-19.1c-6.3-4.7-14.1-7-22.2-7.9c-8.1-0.9-16.5-0.9-25-0.6
				c-8.6,0.4-17.3,1.3-26.1,2.6c-4.4,0.6-8.8,1.3-13.3,2l-6.7,1.1c-1.1,0.2-2.2,0.4-3.4,0.6l-1.7,0.3l-0.8,0.2l-0.4,0.1
				c-0.1,0-0.2,0-0.2,0s0,0-0.1,0l-1-0.5C553.8,168.1,553.7,167.9,553.9,167.7C553.8,167.7,553.9,167.7,553.9,167.7z"/>
		</g>
		<g>
			<path class="st17" d="M463.7,151.2c0-1.7,0.5-3.3,1.2-4.8c0.7-1.5,1.6-2.8,2.6-4.1c2.1-2.5,4.5-4.6,7.1-6.5
				c5.2-3.7,10.9-6.5,16.9-8.5s12.2-3.6,18.5-4.5c6.4-0.8,12.9-0.9,19.5,0c6.5,0.9,13.3,2.4,19.7,5.4c3.2,1.5,6.2,3.5,8.9,5.9
				c2.7,2.4,5,5.2,6.9,8.2c3.7,6.1,5.7,12.9,6.1,19.6c0.1,1.7,0.1,3.3,0.1,5c-0.1,1.6-0.2,3.3-0.5,4.9c-0.1,0.8-0.2,1.6-0.4,2.4
				c-0.2,0.8-0.3,1.6-0.6,2.4c-0.4,1.6-0.9,3.1-1.5,4.6c-0.2,0.4-0.6,0.6-1,0.5c-0.2-0.1-0.4-0.3-0.5-0.5l0,0c-1.1-3-1.9-6-2.9-8.7
				c-0.4-1.4-1-2.8-1.5-4.1c-0.6-1.3-1-2.7-1.6-3.9c-2.2-5.1-4.9-9.5-8.1-13.3c-3.2-3.8-6.7-7-10.9-9.9c-4.1-2.9-9.1-5.3-14.4-6.5
				c-5.3-1.3-11-1.9-16.7-1.8c-5.7,0-11.5,0.6-17.2,1.7c-5.7,1.1-11.3,2.9-16.5,5.4c-2.6,1.3-5.1,2.8-7.2,4.6
				c-2.1,1.9-4,4.1-4.6,6.8l0,0c-0.1,0.4-0.5,0.7-0.9,0.6C463.9,151.9,463.7,151.6,463.7,151.2z"/>
		</g>
		<g>
			<path class="st17" d="M554.3,167.5c8.5-3.3,17.6-5,26.7-5.8c9.1-0.8,18.3-0.6,27.4,0.5c9.1,1.1,18.2,3.3,26.8,6.7
				c8.6,3.4,17,7.6,24.8,12.6c7.9,5,15.2,11,21.2,18.4c3,3.7,5.6,7.5,7.8,11.7s3.9,8.5,5.1,13c2.4,9,2.9,18.4,1.8,27.3
				c-0.6,4.5-1.4,8.8-2.6,13.2c-1.2,4.3-2.7,8.5-4.3,12.6c-0.2,0.4-0.6,0.6-1,0.4c-0.4-0.1-0.5-0.5-0.5-0.9l0,0
				c2.1-8.4,3.5-17.1,3.6-25.6c0.1-8.5-1.2-17-4.2-24.7c-2.9-7.7-7.5-14.7-13.3-20.6c-5.7-5.9-12.5-10.7-19.8-14.6
				c-7.3-4-15.3-6.8-23.4-8.8c-8.1-2.2-16.3-4.1-24.6-6c-8.3-1.8-16.7-3.4-25.3-4.7s-17.2-2.3-26.2-3.3l0,0c-0.4,0-0.7-0.4-0.7-0.8
				C553.9,167.8,554.1,167.6,554.3,167.5z"/>
		</g>
		<path class="st17" d="M296.3,511.4c0.4,2.8,4.6,2.6,4.7-0.3c1.5-54.5,7.7-115.2,22.7-167.9c1.3-4.5,2.6-8.9,5.3-12.7
			c7.2-10,26.7-8.4,37.2-15.4c12.9-8.6,22.2-23,23.3-38.6c0.2-3,0.2-6.1,1.5-8.7c3.4-6.8,12.9-7.1,20.4-6.1
			c34.5,4.9,65.5,19.4,100.7,20.5c10.5,0.3,21.3-0.2,31.1-3.8c24-8.8,29.6-40.9,49.8-54.5c6.4-4.3,14.6-6.6,21.8-4.1
			c13.1,4.5,18.8,24,24.8,35c8.7,15.8,16.1,32.3,24.9,48c9,16.2,21,30.8,24.8,49.5c5,24.4,4.9,51.1,6.6,75.9
			c1.8,25.8,3.6,51.6,5.4,77.5c0.1,2,3.1,2.2,3.4,0.2c1.2-6.8,2.6-13.4,4.7-19.9c4.2-12.9,11-25.1,13.1-38.5
			c2.8-18.2-1.3-36.7,1.2-55.1c2.7-19.9,8.6-38.8,4.7-59c-10.9-56-40.3-108.8-79.8-149.9c-6.9-7.3-14.8-14.4-24.6-16.6
			c-13.9-3.1-26.8,1.1-40.5-4.3c-15.5-6.2-27.6-18.7-43.6-23.9c-39.7-12.9-95,16.7-129.8,33.6c-23.2,11.3-56.9,22.7-73.9,42.9
			c-12.3,14.5-16.3,35.8-24.3,52.7c-16.4,34.7-31.4,66.7-32.5,105.7c-0.5,17.6,0.5,45-0.2,62.6c-0.8,20,2.2,26.1,10.2,43.5
			C291.7,484.6,294.2,498.2,296.3,511.4z"/>
		<g>
			<path class="st17" d="M583,218.3c5.4,3.7,9.4,9.7,11.3,16.5c1.8,6.8,1.6,14-0.1,20.8c-0.4,1.7-1,3.3-1.6,5
				c-0.6,1.6-1.4,3.2-2.1,4.7c-0.8,1.5-1.7,3-2.6,4.4c-1,1.4-1.9,2.8-3,4.1c-4.3,5.2-9.3,9.5-14.4,13.6c-5.2,4-10.8,7.3-16.7,9.9
				s-12.1,4.5-18.3,5.8c-6.2,1.2-12.6,1.8-18.8,1.6c-6.3-0.2-12.4-1.1-18.4-2.5c-0.4-0.1-0.7-0.5-0.6-0.9s0.4-0.6,0.8-0.6l0,0
				c6.1,0.2,12.1,0,17.9-0.7c5.9-0.8,11.6-2.2,17.1-4.1s10.7-4.4,15.6-7.3c4.9-2.9,9.4-6.4,13.5-10.2s7.4-8.3,10.1-13
				c2.7-4.7,5.1-9.3,7.1-14.1c2-4.8,3.4-9.7,3.9-15c0.4-5.3-0.1-10.7-2-16.8l0,0c-0.1-0.4,0.1-0.9,0.5-1
				C582.6,218.2,582.8,218.2,583,218.3z"/>
		</g>
		<g>
			<path class="st17" d="M561,203.8c1.7-5.7,6.1-10.7,11.8-13.8c2.8-1.7,5.9-2.7,9.2-3.4c0.8-0.2,1.6-0.2,2.4-0.3
				c0.8-0.1,1.6-0.2,2.4-0.2c1.6,0,3.3-0.1,4.9,0.1c6.5,0.5,12.8,3,18,6.8c5.2,3.9,9.3,8.7,12.5,14.1s5.2,11.4,5.8,17.5
				c0.5,6.1-0.3,12.1-2,17.6l-0.7,2.1l-0.3,1c-0.1,0.3-0.3,0.7-0.4,1l-1.7,3.9c-0.7,1.3-1.4,2.5-2,3.7c-0.6,1.3-1.5,2.4-2.2,3.6
				c-0.8,1.1-1.5,2.4-2.4,3.4l-2.6,3.3c-0.8,1.1-1.8,2.1-2.8,3.1l-2.8,3c-0.3,0.3-0.8,0.3-1.1,0c-0.3-0.2-0.3-0.6-0.1-0.9l0,0
				c2.8-4.6,5.6-9.1,7.6-14c1.1-2.4,1.9-4.9,2.7-7.3l0.9-3.7c0.1-0.3,0.2-0.6,0.2-0.9l0.1-0.9l0.3-1.9c0.7-5,0.6-9.8-0.5-14.4
				c-1-4.6-3.1-8.8-5.9-12.3c-2.8-3.6-6.6-6.4-10.5-8.2c-4-1.9-8.1-3.4-12.2-4.5c-2.1-0.6-4.2-0.9-6.4-1.1l-1.6-0.1
				c-0.5,0-1.1-0.1-1.7,0c-1.1,0.1-2.3,0-3.4,0.2c-4.5,0.5-9.2,2.1-14.2,4.9l0,0c-0.4,0.2-0.9,0.1-1.1-0.3
				C560.9,204.3,560.9,204,561,203.8z"/>
		</g>
		<g>
			<path class="st17" d="M574,183.7c5.3-2.8,12-3.2,18.2-1.3c3.2,0.8,6.1,2.4,8.8,4.2c0.7,0.5,1.3,1,1.9,1.5c0.6,0.5,1.3,1,1.9,1.6
				c1.1,1.2,2.4,2.3,3.4,3.6c4.2,5,6.8,11.1,7.7,17.5c0.9,6.4,0.2,12.7-1.4,18.8c-1.6,6.1-4.6,11.6-8.5,16.3
				c-4,4.7-8.9,8.2-14.1,10.9l-2,1l-1,0.5c-0.3,0.1-0.7,0.3-1,0.4l-4,1.5c-1.4,0.4-2.7,0.8-4.1,1.2c-1.4,0.4-2.7,0.6-4.1,0.9
				c-1.4,0.2-2.7,0.6-4.1,0.7l-4.1,0.4c-1.4,0.2-2.8,0.2-4.1,0.2l-4.1,0.1c-0.4,0-0.8-0.3-0.8-0.7c0-0.4,0.2-0.7,0.6-0.7l0,0
				c5.3-1.2,10.5-2.4,15.4-4.4c2.5-0.9,4.8-2.1,7.1-3.2l3.3-1.9c0.3-0.2,0.6-0.3,0.8-0.5l0.8-0.6l1.5-1.1c4.1-3,7.5-6.5,10-10.4
				c2.6-4,4.2-8.3,4.8-12.8s0-9.1-1.4-13.3s-3.2-8.1-5.3-11.8c-1-1.9-2.3-3.6-3.7-5.4l-1.1-1.2c-0.4-0.4-0.7-0.9-1.1-1.2
				c-0.8-0.7-1.6-1.6-2.5-2.2c-3.5-2.9-7.9-5.1-13.4-6.7l0,0c-0.4-0.1-0.7-0.6-0.6-1C573.7,183.9,573.8,183.8,574,183.7z"/>
		</g>
		<g>
			<path class="st17" d="M584.1,218.6c3.6,5.4,5.5,12.1,5,19.1c-0.4,7-3,13.8-7,19.6c-4,5.8-9.3,10.3-15.2,13.5
				c-5.9,3.3-12.1,5.5-18.3,7.3c-6.2,1.8-12.5,3-18.9,3.4c-6.4,0.4-12.8,0.1-19-0.9c-6.2-1.1-12.4-2.9-18-5.6
				c-5.6-2.7-10.8-6.4-15-10.9c-0.3-0.3-0.3-0.8,0.1-1.1c0.3-0.2,0.7-0.3,1,0c4.8,3.6,10.1,6.1,15.7,7.6c5.6,1.6,11.3,2.5,17,2.6
				c5.7,0.1,11.5-0.4,17-1.6c5.6-1.1,11-2.7,16.2-4.9c5.2-2.1,9.9-5.1,14.1-8.4c4.2-3.3,8-6.8,11.5-10.3c3.4-3.7,6.3-7.7,8.4-12.5
				c2.1-4.8,3.3-10.2,3.9-16.5l0,0c0-0.4,0.4-0.8,0.9-0.7C583.8,218.3,584,218.4,584.1,218.6z"/>
		</g>
	</g>
	<g id="Layer_4">
		<g>
			<path class="st11" d="M347.8,444.3c17.7-23.9,42-26.8,71-22.7"/>
			<path class="st18" d="M418.8,444.3c0-4.1-1.4-7.8-3.9-10.7c-3.1-3.8-7.8-2.2-13.1-2.2c-5.6,0-10.6-1.3-13.7,2.9
				c-2.1,2.8-3.3,6.3-3.3,10c0,9.3,7.6,16.9,17,16.9C411.2,461.2,418.8,453.6,418.8,444.3z"/>
			<g>
				<g>
					<g>
						<ellipse class="st19" cx="395" cy="441.3" rx="3.3" ry="3.3"/>
						<ellipse class="st19" cx="398.5" cy="439.8" rx="2.3" ry="2.3"/>
					</g>
				</g>
			</g>
			<path class="st11" d="M440.3,444.8c-36.5-21.4-55.9-14.6-84,4"/>
			<path class="st11" d="M652.2,444.3c-17.7-23.9-42-26.8-71-22.7"/>
			<path class="st18" d="M581.2,444.3c0-4.1,1.4-7.8,3.9-10.7c3.1-3.8,7.8-2.2,13.1-2.2c5.6,0,10.6-1.3,13.7,2.9
				c2.1,2.8,3.3,6.3,3.3,10c0,9.3-7.6,16.9-17,16.9S581.2,453.6,581.2,444.3z"/>
			<g>
				<g>
					<g>
						<ellipse class="st19" cx="589.5" cy="441.2" rx="3.3" ry="3.3"/>
						<ellipse class="st19" cx="593" cy="439.7" rx="2.3" ry="2.3"/>
					</g>
				</g>
			</g>
			<path class="st11" d="M559.7,444.8c36.5-21.4,55.9-14.6,84,4"/>
			<path class="st17" d="M439,392.1c-3.4-3-7.5-5.6-11.1-6.9c-15.5-5.8-33.5-5.2-49.8-7.1c-3.4-0.4-6.9-0.7-10.2,0.2
				c-9.7,2.7-22.4,12.9-27.9,20.8c-1.4,2-1.7,5.2,0.3,6.5c1.7,1,3.8,0.1,5.6-0.8c12.5-6.4,20.2-11.7,34.6-8
				c6.6,1.7,65.4,20.5,65.4,6.2c0.1-1.3-0.5-2.7-1.1-3.8C443.6,396.6,441.5,394.2,439,392.1z"/>
			<path class="st17" d="M561,392.1c3.4-3,7.5-5.6,11.1-6.9c15.5-5.8,33.5-5.2,49.8-7.1c3.4-0.4,6.9-0.7,10.2,0.2
				c9.7,2.7,22.4,12.9,27.9,20.8c1.4,2,1.7,5.2-0.3,6.5c-1.7,1-3.8,0.1-5.6-0.8c-12.5-6.4-20.2-11.7-34.6-8
				c-6.6,1.7-65.4,20.5-65.4,6.2c-0.1-1.3,0.5-2.7,1.1-3.8C556.4,396.6,558.5,394.2,561,392.1z"/>
		</g>
	</g>
</g>
</svg>
